<mxfile host="app.diagrams.net" modified="2023-10-09T08:24:22.934Z" agent="Mozilla/5.0 (Macintosh; Intel Mac OS X 10_15_7) AppleWebKit/605.1.15 (KHTML, like Gecko) Version/16.6 Safari/605.1.15" etag="QbDm4mDRfddoEtGuYQt4" version="22.0.4" type="device">
  <diagram name="Sivu-1" id="FcUAAS7uGiRg8aabC9A6">
    <mxGraphModel dx="1363" dy="780" grid="1" gridSize="10" guides="1" tooltips="1" connect="1" arrows="1" fold="1" page="1" pageScale="1" pageWidth="827" pageHeight="1169" math="0" shadow="0">
      <root>
        <mxCell id="0" />
        <mxCell id="1" parent="0" />
        <mxCell id="Xg2KhT2PTYvunX2FFoCe-7" style="rounded=0;orthogonalLoop=1;jettySize=auto;html=1;exitX=0.5;exitY=0.5;exitDx=0;exitDy=0;exitPerimeter=0;entryX=0;entryY=0.5;entryDx=0;entryDy=0;" edge="1" parent="1" source="Xg2KhT2PTYvunX2FFoCe-1" target="Xg2KhT2PTYvunX2FFoCe-2">
          <mxGeometry relative="1" as="geometry" />
        </mxCell>
        <mxCell id="Xg2KhT2PTYvunX2FFoCe-8" style="rounded=0;orthogonalLoop=1;jettySize=auto;html=1;exitX=0.5;exitY=0.5;exitDx=0;exitDy=0;exitPerimeter=0;entryX=0;entryY=0.5;entryDx=0;entryDy=0;" edge="1" parent="1" source="Xg2KhT2PTYvunX2FFoCe-1" target="Xg2KhT2PTYvunX2FFoCe-3">
          <mxGeometry relative="1" as="geometry" />
        </mxCell>
        <mxCell id="Xg2KhT2PTYvunX2FFoCe-1" value="Actor" style="shape=umlActor;verticalLabelPosition=bottom;verticalAlign=top;html=1;outlineConnect=0;" vertex="1" parent="1">
          <mxGeometry x="50" y="150" width="30" height="60" as="geometry" />
        </mxCell>
        <mxCell id="Xg2KhT2PTYvunX2FFoCe-18" style="edgeStyle=none;rounded=0;orthogonalLoop=1;jettySize=auto;html=1;exitX=1;exitY=0.5;exitDx=0;exitDy=0;entryX=0;entryY=0;entryDx=0;entryDy=0;" edge="1" parent="1" source="Xg2KhT2PTYvunX2FFoCe-2" target="Xg2KhT2PTYvunX2FFoCe-3">
          <mxGeometry relative="1" as="geometry" />
        </mxCell>
        <mxCell id="Xg2KhT2PTYvunX2FFoCe-2" value="scroll polls" style="ellipse;whiteSpace=wrap;html=1;" vertex="1" parent="1">
          <mxGeometry x="170" y="80" width="120" height="80" as="geometry" />
        </mxCell>
        <mxCell id="Xg2KhT2PTYvunX2FFoCe-20" style="edgeStyle=none;rounded=0;orthogonalLoop=1;jettySize=auto;html=1;exitX=1;exitY=0.5;exitDx=0;exitDy=0;entryX=0;entryY=0.5;entryDx=0;entryDy=0;" edge="1" parent="1" source="Xg2KhT2PTYvunX2FFoCe-3" target="Xg2KhT2PTYvunX2FFoCe-16">
          <mxGeometry relative="1" as="geometry" />
        </mxCell>
        <mxCell id="Xg2KhT2PTYvunX2FFoCe-21" style="edgeStyle=none;rounded=0;orthogonalLoop=1;jettySize=auto;html=1;exitX=1;exitY=0.5;exitDx=0;exitDy=0;entryX=0;entryY=0.5;entryDx=0;entryDy=0;" edge="1" parent="1" source="Xg2KhT2PTYvunX2FFoCe-3" target="Xg2KhT2PTYvunX2FFoCe-6">
          <mxGeometry relative="1" as="geometry" />
        </mxCell>
        <mxCell id="Xg2KhT2PTYvunX2FFoCe-22" style="edgeStyle=none;rounded=0;orthogonalLoop=1;jettySize=auto;html=1;exitX=1;exitY=0.5;exitDx=0;exitDy=0;entryX=0;entryY=0.5;entryDx=0;entryDy=0;" edge="1" parent="1" source="Xg2KhT2PTYvunX2FFoCe-3" target="Xg2KhT2PTYvunX2FFoCe-19">
          <mxGeometry relative="1" as="geometry" />
        </mxCell>
        <mxCell id="Xg2KhT2PTYvunX2FFoCe-3" value="sign in / sign up" style="ellipse;whiteSpace=wrap;html=1;" vertex="1" parent="1">
          <mxGeometry x="340" y="140" width="120" height="80" as="geometry" />
        </mxCell>
        <mxCell id="Xg2KhT2PTYvunX2FFoCe-6" value="create a poll" style="ellipse;whiteSpace=wrap;html=1;" vertex="1" parent="1">
          <mxGeometry x="570" y="140" width="120" height="80" as="geometry" />
        </mxCell>
        <mxCell id="Xg2KhT2PTYvunX2FFoCe-16" value="scroll polls" style="ellipse;whiteSpace=wrap;html=1;" vertex="1" parent="1">
          <mxGeometry x="570" y="30" width="120" height="80" as="geometry" />
        </mxCell>
        <mxCell id="Xg2KhT2PTYvunX2FFoCe-19" value="vote" style="ellipse;whiteSpace=wrap;html=1;" vertex="1" parent="1">
          <mxGeometry x="570" y="250" width="120" height="80" as="geometry" />
        </mxCell>
      </root>
    </mxGraphModel>
  </diagram>
</mxfile>
